<?xml version="1.0" encoding="utf-8"?>
<!-- Generator: Adobe Illustrator 16.0.4, SVG Export Plug-In . SVG Version: 6.00 Build 0)  -->
<!DOCTYPE svg PUBLIC "-//W3C//DTD SVG 1.1//EN" "http://www.w3.org/Graphics/SVG/1.1/DTD/svg11.dtd">
<svg version="1.1" id="Layer_1" xmlns="http://www.w3.org/2000/svg" xmlns:xlink="http://www.w3.org/1999/xlink" x="0px" y="0px"
	 width="235px" height="60px" viewBox="0 0 235 60" enable-background="new 0 0 235 60" xml:space="preserve">
<g>
	<g>
		<g>
			<path fill="#FFFFFF" d="M179.255,14.765h-13.21c-0.903,0-1.671,0.653-1.81,1.545l-5.339,33.859
				c-0.103,0.665,0.409,1.276,1.09,1.276h6.77c0.631,0,1.172-0.467,1.27-1.089l1.512-9.598c0.144-0.886,0.911-1.547,1.814-1.547
				h4.177c8.696,0,13.715-4.209,15.028-12.558c0.588-3.642,0.019-6.512-1.685-8.519C186.998,15.93,183.664,14.765,179.255,14.765z
				 M180.776,27.127c-0.721,4.74-4.346,4.74-7.846,4.74h-1.991l1.4-8.849c0.082-0.531,0.548-0.924,1.084-0.924h0.912
				c2.385,0,4.64,0,5.803,1.348C180.826,24.259,181.04,25.464,180.776,27.127z"/>
			<path fill="#FFFFFF" d="M85.077,14.765H71.868c-0.903,0-1.671,0.653-1.81,1.545l-5.335,33.859
				c-0.111,0.665,0.405,1.276,1.086,1.276h6.304c0.896,0,1.667-0.661,1.811-1.555l1.443-9.132c0.138-0.886,0.905-1.547,1.809-1.547
				h4.18c8.698,0,13.715-4.209,15.027-12.558c0.584-3.642,0.025-6.512-1.681-8.519C92.823,15.93,89.49,14.765,85.077,14.765z
				 M86.601,27.127c-0.724,4.74-4.346,4.74-7.841,4.74h-1.998l1.402-8.849c0.082-0.531,0.539-0.924,1.083-0.924h0.915
				c2.383,0,4.638,0,5.79,1.348C86.647,24.259,86.855,25.464,86.601,27.127z"/>
			<path fill="#FFFFFF" d="M124.54,26.977h-6.317c-0.546,0-1.008,0.396-1.09,0.932l-0.281,1.766l-0.443-0.639
				c-1.368-1.986-4.419-2.653-7.467-2.653c-6.983,0-12.951,5.29-14.112,12.723c-0.609,3.698,0.252,7.241,2.353,9.709
				c1.929,2.272,4.686,3.212,7.963,3.212c5.633,0,8.752-3.613,8.752-3.613l-0.279,1.757c-0.108,0.665,0.409,1.276,1.083,1.276h5.697
				c0.901,0,1.667-0.661,1.812-1.555l3.42-21.644C125.733,27.58,125.222,26.977,124.54,26.977z M115.73,39.284
				c-0.613,3.613-3.481,6.038-7.14,6.038c-1.827,0-3.298-0.588-4.245-1.707c-0.936-1.105-1.283-2.685-0.993-4.441
				c0.571-3.578,3.485-6.088,7.088-6.088c1.801,0,3.256,0.596,4.211,1.729C115.625,35.947,116.005,37.531,115.73,39.284z"/>
			<path fill="#FFFFFF" d="M218.717,26.977h-6.324c-0.543,0-1.001,0.396-1.089,0.932l-0.275,1.766l-0.442-0.639
				c-1.371-1.986-4.419-2.653-7.467-2.653c-6.985,0-12.951,5.29-14.112,12.723c-0.604,3.698,0.256,7.241,2.353,9.709
				c1.929,2.272,4.683,3.212,7.959,3.212c5.634,0,8.758-3.613,8.758-3.613l-0.282,1.757c-0.107,0.665,0.408,1.276,1.085,1.276h5.698
				c0.901,0,1.665-0.661,1.81-1.555l3.423-21.644C219.912,27.58,219.396,26.977,218.717,26.977z M209.906,39.284
				c-0.611,3.613-3.476,6.038-7.139,6.038c-1.833,0-3.3-0.588-4.243-1.707c-0.939-1.105-1.287-2.685-0.989-4.441
				c0.569-3.578,3.476-6.088,7.081-6.088c1.803,0,3.258,0.596,4.221,1.729C209.803,35.947,210.181,37.531,209.906,39.284z"/>
			<path fill="#FFFFFF" d="M158.216,26.977h-6.357c-0.607,0-1.172,0.302-1.514,0.804l-8.769,12.913l-3.716-12.41
				c-0.233-0.775-0.945-1.307-1.753-1.307h-6.252c-0.754,0-1.278,0.739-1.041,1.456l6.999,20.537l-6.579,9.289
				c-0.519,0.729,0,1.741,0.892,1.741h6.352c0.598,0,1.165-0.302,1.508-0.791l21.134-30.504
				C159.627,27.974,159.104,26.977,158.216,26.977z"/>
			<path fill="#FFFFFF" d="M226.168,15.689l-5.419,34.48c-0.104,0.665,0.413,1.276,1.088,1.276h5.45
				c0.905,0,1.673-0.661,1.811-1.555l5.351-33.856c0.104-0.668-0.416-1.27-1.092-1.27h-6.1
				C226.715,14.765,226.256,15.16,226.168,15.689z"/>
		</g>
	</g>
	<g>
		<path fill="#FFFFFF" d="M39.218,20.465c0.628-3.993-0.006-6.71-2.166-9.171c-2.38-2.71-6.676-3.872-12.176-3.872H8.92
			c-1.126,0-2.08,0.817-2.258,1.929L0.017,51.487c-0.132,0.832,0.514,1.585,1.352,1.585h9.854l-0.682,4.312
			c-0.114,0.729,0.453,1.383,1.184,1.383h8.307c0.983,0,1.818-0.711,1.973-1.685l0.082-0.424l1.564-9.919l0.099-0.542
			c0.151-0.97,0.993-1.688,1.973-1.688h1.247c8.04,0,14.343-3.269,16.178-12.726c0.775-3.953,0.373-7.245-1.655-9.562
			C40.875,21.519,40.107,20.938,39.218,20.465L39.218,20.465"/>
		<path fill="#FFFFFF" d="M39.218,20.465c0.628-3.993-0.006-6.71-2.166-9.171c-2.38-2.71-6.676-3.872-12.176-3.872H8.92
			c-1.126,0-2.08,0.817-2.258,1.929L0.017,51.487c-0.132,0.832,0.514,1.585,1.352,1.585h9.854l2.473-15.689l-0.079,0.488
			c0.179-1.111,1.126-1.929,2.251-1.929h4.683c9.194,0,16.394-3.739,18.502-14.543C39.111,21.082,39.164,20.771,39.218,20.465"/>
		<path fill="#FFFFFF" d="M16.357,20.521c0.103-0.672,0.533-1.217,1.111-1.492c0.262-0.122,0.552-0.19,0.859-0.19h12.51
			c1.482,0,2.867,0.094,4.127,0.298c0.358,0.054,0.71,0.126,1.055,0.197c0.341,0.078,0.674,0.163,0.99,0.258
			c0.164,0.044,0.323,0.094,0.475,0.143c0.621,0.208,1.199,0.453,1.732,0.731c0.628-3.993-0.006-6.71-2.166-9.171
			c-2.38-2.71-6.676-3.872-12.176-3.872H8.92c-1.126,0-2.08,0.817-2.258,1.929L0.017,51.487c-0.132,0.832,0.514,1.585,1.352,1.585
			h9.854l2.473-15.689L16.357,20.521z"/>
	</g>
	<g>
		<path fill="#009CDE" d="M179.255,11.092h-13.21c-0.903,0-1.671,0.653-1.81,1.547l-5.339,33.856
			c-0.103,0.668,0.409,1.279,1.09,1.279h6.77c0.631,0,1.172-0.466,1.27-1.092l1.512-9.595c0.144-0.89,0.911-1.55,1.814-1.55h4.177
			c8.696,0,13.715-4.21,15.028-12.555c0.588-3.643,0.019-6.511-1.685-8.521C186.998,12.259,183.664,11.092,179.255,11.092z
			 M180.776,23.456c-0.721,4.742-4.346,4.742-7.846,4.742h-1.991l1.4-8.847c0.082-0.534,0.548-0.929,1.084-0.929h0.912
			c2.385,0,4.64,0,5.803,1.352C180.826,20.587,181.04,21.792,180.776,23.456z"/>
		<path fill="#003087" d="M85.077,11.092H71.868c-0.903,0-1.671,0.653-1.81,1.547l-5.335,33.856
			c-0.111,0.668,0.405,1.279,1.086,1.279h6.304c0.896,0,1.667-0.66,1.811-1.559l1.443-9.128c0.138-0.89,0.905-1.55,1.809-1.55h4.18
			c8.698,0,13.715-4.21,15.027-12.555c0.584-3.643,0.025-6.511-1.681-8.521C92.823,12.259,89.49,11.092,85.077,11.092z
			 M86.601,23.456c-0.724,4.742-4.346,4.742-7.841,4.742h-1.998l1.402-8.847c0.082-0.534,0.539-0.929,1.083-0.929h0.915
			c2.383,0,4.638,0,5.79,1.352C86.647,20.587,86.855,21.792,86.601,23.456z"/>
		<path fill="#003087" d="M124.54,23.306h-6.317c-0.546,0-1.008,0.394-1.09,0.933l-0.281,1.763l-0.443-0.638
			c-1.368-1.986-4.419-2.652-7.467-2.652c-6.983,0-12.951,5.292-14.112,12.72c-0.609,3.701,0.252,7.245,2.353,9.713
			c1.929,2.272,4.686,3.212,7.963,3.212c5.633,0,8.752-3.617,8.752-3.617l-0.279,1.757c-0.108,0.668,0.409,1.279,1.083,1.279h5.697
			c0.901,0,1.667-0.66,1.812-1.559l3.42-21.641C125.733,23.908,125.222,23.306,124.54,23.306z M115.73,35.61
			c-0.613,3.617-3.481,6.038-7.14,6.038c-1.827,0-3.298-0.588-4.245-1.707c-0.936-1.104-1.283-2.682-0.993-4.438
			c0.571-3.578,3.485-6.087,7.088-6.087c1.801,0,3.256,0.596,4.211,1.727C115.625,32.275,116.005,33.861,115.73,35.61z"/>
		<path fill="#009CDE" d="M218.717,23.306h-6.324c-0.543,0-1.001,0.394-1.089,0.933l-0.275,1.763l-0.442-0.638
			c-1.371-1.986-4.419-2.652-7.467-2.652c-6.985,0-12.951,5.292-14.112,12.72c-0.604,3.701,0.256,7.245,2.353,9.713
			c1.929,2.272,4.683,3.212,7.959,3.212c5.634,0,8.758-3.617,8.758-3.617l-0.282,1.757c-0.107,0.668,0.408,1.279,1.085,1.279h5.698
			c0.901,0,1.665-0.66,1.81-1.559l3.423-21.641C219.912,23.908,219.396,23.306,218.717,23.306z M209.906,35.61
			c-0.611,3.617-3.476,6.038-7.139,6.038c-1.833,0-3.3-0.588-4.243-1.707c-0.939-1.104-1.287-2.682-0.989-4.438
			c0.569-3.578,3.476-6.087,7.081-6.087c1.803,0,3.258,0.596,4.221,1.727C209.803,32.275,210.181,33.861,209.906,35.61z"/>
		<path fill="#003087" d="M158.216,23.306h-6.357c-0.607,0-1.172,0.301-1.514,0.803l-8.769,12.915l-3.716-12.413
			c-0.233-0.775-0.945-1.305-1.753-1.305h-6.252c-0.754,0-1.278,0.738-1.041,1.456l6.999,20.538l-6.579,9.284
			c-0.519,0.733,0,1.746,0.892,1.746h6.352c0.598,0,1.165-0.302,1.508-0.791l21.134-30.505
			C159.627,24.302,159.104,23.306,158.216,23.306z"/>
		<path fill="#009CDE" d="M226.168,12.019l-5.419,34.477c-0.104,0.668,0.413,1.279,1.088,1.279h5.45c0.905,0,1.673-0.66,1.811-1.559
			l5.351-33.854c0.104-0.667-0.416-1.27-1.092-1.27h-6.1C226.715,11.092,226.256,11.488,226.168,12.019z"/>
	</g>
	<path fill="#009CDE" d="M39.218,16.795c0.628-3.995-0.006-6.712-2.166-9.172c-2.38-2.711-6.676-3.873-12.176-3.873H8.92
		c-1.126,0-2.08,0.817-2.258,1.929L0.017,47.816c-0.132,0.833,0.514,1.585,1.352,1.585h9.854l-0.682,4.309
		c-0.114,0.733,0.453,1.386,1.184,1.386h8.307c0.983,0,1.818-0.71,1.973-1.688l0.082-0.42l1.564-9.919l0.099-0.546
		c0.151-0.967,0.993-1.685,1.973-1.685h1.247c8.04,0,14.343-3.27,16.178-12.729c0.775-3.952,0.373-7.243-1.655-9.559
		C40.875,17.849,40.107,17.268,39.218,16.795L39.218,16.795"/>
	<path fill="#012169" d="M39.218,16.795c0.628-3.995-0.006-6.712-2.166-9.172c-2.38-2.711-6.676-3.873-12.176-3.873H8.92
		c-1.126,0-2.08,0.817-2.258,1.929L0.017,47.816c-0.132,0.833,0.514,1.585,1.352,1.585h9.854l2.473-15.689l-0.079,0.485
		c0.179-1.111,1.126-1.929,2.251-1.929h4.683c9.194,0,16.394-3.735,18.502-14.542C39.111,17.412,39.164,17.098,39.218,16.795"/>
	<path fill="#003087" d="M16.357,16.848c0.103-0.67,0.533-1.216,1.111-1.491c0.262-0.123,0.552-0.191,0.859-0.191h12.51
		c1.482,0,2.867,0.094,4.127,0.298c0.358,0.053,0.71,0.126,1.055,0.196c0.341,0.081,0.674,0.163,0.99,0.26
		c0.164,0.042,0.323,0.092,0.475,0.144c0.621,0.208,1.199,0.451,1.732,0.731c0.628-3.995-0.006-6.712-2.166-9.172
		c-2.38-2.711-6.676-3.873-12.176-3.873H8.92c-1.126,0-2.08,0.817-2.258,1.929L0.017,47.816c-0.132,0.833,0.514,1.585,1.352,1.585
		h9.854l2.473-15.689L16.357,16.848z"/>
</g>
</svg>
