<?xml version="1.0" encoding="UTF-8" standalone="no"?>
<svg width="36px" height="36px" viewBox="0 0 36 36" version="1.1" xmlns="http://www.w3.org/2000/svg" xmlns:xlink="http://www.w3.org/1999/xlink">
    <!-- Generator: sketchtool 3.7.2 (28276) - http://www.bohemiancoding.com/sketch -->
    <title>0315FFD8-ABC8-441B-A97A-EB47BA1F0475</title>
    <desc>Created with sketchtool.</desc>
    <defs></defs>
    <g id="Page-1" stroke="none" stroke-width="1" fill="none" fill-rule="evenodd">
        <g id="Bill-36---On-State">
            <g id="Group-2">
                <path d="M18,36 C8.059,36 0,27.941 0,18 C0,8.059 8.059,0 18,0 C27.941,0 36,8.059 36,18 C36,27.941 27.941,36 18,36 Z" id="Fill-1" fill="#82CEAC"></path>
                <g id="Group-11" transform="translate(11.000000, 9.000000)" fill="#3B3B3B">
                    <path d="M5.5,6.9996 C5.5,7.8286 6.172,8.4996 7,8.4996 C7.828,8.4996 8.5,7.8286 8.5,6.9996 C8.5,6.1716 7.828,5.4996 7,5.4996 C6.172,5.4996 5.5,6.1716 5.5,6.9996" id="Fill-3"></path>
                    <path d="M4.2204,9.8026 C4.0984,9.8336 3.9984,9.9626 3.9984,10.0886 L3.9984,11.9996 L10.0004,11.9996 L10.0004,10.0886 C10.0004,9.9626 9.9004,9.8336 9.7774,9.8026 C9.7774,9.8026 8.1234,9.3826 6.9994,9.3826 C5.8744,9.3826 4.2204,9.8026 4.2204,9.8026" id="Fill-5"></path>
                    <path d="M12,16 L2,16 L2,2 L8,2 L8,0 L1,0 C0.45,0 0,0.45 0,1 L0,17 C0,17.55 0.45,18 1,18 L13,18 C13.55,18 14,17.55 14,17 L14,6 L12,6 L12,16 Z" id="Fill-7"></path>
                    <path d="M11,4 L14,4 L10,0 L10,3 C10,3.55 10.45,4 11,4" id="Fill-9"></path>
                </g>
            </g>
        </g>
    </g>
</svg>