<?xml version="1.0" encoding="utf-8"?>
<!-- Generator: Adobe Illustrator 21.1.0, SVG Export Plug-In . SVG Version: 6.00 Build 0)  -->
<svg version="1.1" id="Layer_1" xmlns="http://www.w3.org/2000/svg" xmlns:xlink="http://www.w3.org/1999/xlink" x="0px" y="0px"
	 viewBox="0 0 157.5 321" style="enable-background:new 0 0 157.5 321;" xml:space="preserve">
<style type="text/css">
	.st0{fill:#FFFFFF;}
	.st1{fill:#C4C5C6;}
	.st2{fill:none;stroke:#C4C5C6;stroke-miterlimit:10;}
	.st3{fill:#989899;}
</style>
<g>
	<g>
		<path class="st0" d="M20.8,319.8c-10.8,0-19.6-8.8-19.6-19.6V20.9C1.2,10,10,1.2,20.8,1.2h115.6c10.8,0,19.6,8.8,19.6,19.6v279.2
			c0,10.8-8.8,19.6-19.6,19.6H20.8z"/>
		<path class="st1" d="M136.4,1.8c10.5,0,19.1,8.6,19.1,19.1v279.2c0,10.5-8.6,19.1-19.1,19.1H20.8c-10.5,0-19.1-8.6-19.1-19.1V20.9
			c0-10.5,8.6-19.1,19.1-19.1H136.4 M136.4,0.7H20.8c-11.1,0-20.2,9-20.2,20.2v279.2c0,11.1,9,20.2,20.2,20.2h115.6
			c11.1,0,20.2-9,20.2-20.2V20.9C156.5,9.7,147.5,0.7,136.4,0.7L136.4,0.7z"/>
	</g>
	<g>
		<path class="st0" d="M152.9,278.4H4.3V42.6h148.6V278.4z"/>
		<path class="st2" d="M152.9,278.4H4.3V42.6h148.6V278.4z"/>
	</g>
	<g>
		<g>
			<path class="st1" d="M78.6,284.7c7.7,0,14,6.3,14,14s-6.3,14-14,14s-14-6.3-14-14S70.9,284.7,78.6,284.7 M78.6,283.7
				c-8.3,0-15,6.7-15,15s6.7,15,15,15s15-6.7,15-15S86.9,283.7,78.6,283.7L78.6,283.7z"/>
		</g>
	</g>
	<g>
		<circle class="st3" cx="82" cy="13" r="1"/>
	</g>
	<g>
		<g>
			<circle class="st3" cx="56.9" cy="23" r="3.1"/>
		</g>
		<path class="st2" d="M101.8,24.9H64.5c-0.8,0-1.4-0.6-1.4-1.4v0c0-0.8,0.6-1.4,1.4-1.4h37.2c0.8,0,1.4,0.6,1.4,1.4v0
			C103.2,24.2,102.6,24.9,101.8,24.9z"/>
	</g>
</g>
</svg>
