<?xml version="1.0" encoding="utf-8"?>
<!-- Generator: Adobe Illustrator 21.0.2, SVG Export Plug-In . SVG Version: 6.00 Build 0)  -->
<svg version="1.1" id="Layer_1" xmlns="http://www.w3.org/2000/svg" xmlns:xlink="http://www.w3.org/1999/xlink" x="0px" y="0px"
	 viewBox="0 0 1000 1000" style="enable-background:new 0 0 1000 1000;" xml:space="preserve">
<style type="text/css">
	.st0{fill:#0088CC;}
	.st1{fill:#FFFFFF;}
</style>
<g>
	<g>
		<path class="st0" d="M500,50C251.5,50,50,251.5,50,500c0,248.5,201.5,450,450,450c248.5,0,450-201.5,450-450
			C950,251.5,748.5,50,500,50z"/>
	</g>
	<g>
		<path class="st1" d="M651.4,588.3c-27.7,0-50.1,22.4-50.1,50.1c0,0.1,0,0.3,0,0.4c0.2,27.5,22.6,49.7,50.1,49.7
			c27.5,0,49.9-22.2,50.1-49.7c0-0.1,0-0.3,0-0.4C701.5,610.8,679.1,588.3,651.4,588.3"/>
		<path class="st1" d="M348.8,588.3c-27.7,0-50.1,22.4-50.1,50.1c0,0.1,0,0.3,0,0.4c0.2,27.5,22.6,49.7,50.1,49.7
			c27.5,0,49.9-22.2,50.1-49.7c0-0.1,0-0.3,0-0.4C399,610.8,376.5,588.3,348.8,588.3"/>
		<path class="st1" d="M750.8,609v-73.3v-5.7l-8.3-29.9l-3.4-12.1l-19.4-69.4l-0.8-3l-0.9-3.3c-0.3-1.4-0.8-2.8-1.4-4.2
			c-1-2.6-2.4-5.1-4.1-7.5c-5.1-7.4-12.7-13.3-19.6-13.3h-3.7h-7.5h-7.5h-84.6v-50.9c0-13.8-11.2-25.1-25.1-25.1H463.1H356h-7.5
			h-7.5h-67.1c-13.8,0-25.1,11.2-25.1,25.1v272.8c-5.2,2.4-8.8,7.6-8.8,13.6c0,8.3,6.7,15,15,15h18.8h9.9
			c0.3-35.7,29.4-64.6,65.1-64.6c35.7,0,64.8,28.9,65.1,64.6h148.9h23.4c0.3-35.7,29.4-64.6,65.1-64.6c35.7,0,64.8,28.9,65.1,64.6
			h27.4h1.1c8.3,0,15-6.7,15-15C760,616.7,756.2,611.3,750.8,609 M611.9,500.7v-88.3h75.2l27.1,88.3H611.9z"/>
	</g>
</g>
</svg>
