<?xml version="1.0" encoding="utf-8"?>
<!-- Generator: Adobe Illustrator 21.1.0, SVG Export Plug-In . SVG Version: 6.00 Build 0)  -->
<svg version="1.1" id="Layer_1" xmlns="http://www.w3.org/2000/svg" xmlns:xlink="http://www.w3.org/1999/xlink" x="0px" y="0px"
	 viewBox="0 0 460 920" style="enable-background:new 0 0 460 920;" xml:space="preserve">
<style type="text/css">
	.st0{fill:#FFFFFF;}
	.st1{fill:#C4C5C6;}
	.st2{fill:#FFFFFF;stroke:#C4C5C6;stroke-width:1.2518;stroke-miterlimit:10;}
	.st3{fill:#989899;}
	.st4{fill:none;stroke:#C4C5C6;stroke-width:1.2518;stroke-miterlimit:10;}
	.st5{fill:#E6E6E6;}
	.st6{fill:none;stroke:#767676;stroke-width:1.416;stroke-miterlimit:10;}
	.st7{fill:#767676;}
</style>
<g>
	<g>
		<path class="st0" d="M12,864.5V55.4c0-24.2,19.7-43.9,43.9-43.9h348.3c24.2,0,43.9,19.7,43.9,43.9v809.2
			c0,24.2-19.7,43.9-43.9,43.9H55.9C31.6,908.4,12,888.8,12,864.5z"/>
		<path class="st1" d="M404.1,12.9c23.4,0,42.4,19,42.4,42.4v809.2c0,23.4-19,42.5-42.5,42.5H55.9c-23.4,0-42.5-19-42.5-42.5V55.4
			c0-23.4,19-42.5,42.5-42.5H404.1 M404.1,10H55.9c-25.1,0-45.4,20.3-45.4,45.4v809.2c0,25.1,20.3,45.4,45.4,45.4h348.3
			c25.1,0,45.4-20.3,45.4-45.4V55.3C449.4,30.3,429.1,10,404.1,10L404.1,10z"/>
	</g>
	<path class="st2" d="M439.1,792.1H20.8V127.8h418.5L439.1,792.1L439.1,792.1z"/>
	<g>
		<path class="st1" d="M230,809.8c21.7,0,39.4,17.7,39.4,39.4c0,21.7-17.7,39.4-39.4,39.4s-39.4-17.7-39.4-39.4
			C190.6,827.5,208.3,809.8,230,809.8 M230,807c-23.3,0-42.3,18.9-42.3,42.2c0,23.3,18.9,42.2,42.3,42.2c23.4,0,42.3-18.9,42.3-42.2
			C272.2,825.9,253.2,807,230,807L230,807z"/>
	</g>
	<circle class="st3" cx="239.5" cy="44.5" r="2.9"/>
	<g>
		<circle class="st3" cx="168.8" cy="72.7" r="8.7"/>
		<path class="st4" d="M297.7,78H187.7c-0.8,0-1.4-0.6-1.4-1.4v-5.2c0-0.8,0.6-1.4,1.4-1.4h110.1c0.8,0,1.4,0.6,1.4,1.4v5.2
			C299.1,77.4,298.5,78,297.7,78z"/>
	</g>
	<g>
		<circle class="st5" cx="230" cy="459.9" r="95.3"/>
		<g>
			<polyline class="st6" points="209.2,435.7 214.7,466.2 250.2,463.7 249.8,442.2 210.9,441.6 			"/>
			<rect x="212.7" y="471.5" class="st7" width="39.3" height="4.3"/>
			<ellipse class="st7" cx="216.1" cy="481.2" rx="3.2" ry="3.3"/>
			<ellipse class="st7" cx="249.1" cy="481.2" rx="3.2" ry="3.3"/>
		</g>
	</g>
</g>
</svg>
