<?xml version="1.0" encoding="utf-8"?>
<!-- Generator: Adobe Illustrator 21.1.0, SVG Export Plug-In . SVG Version: 6.00 Build 0)  -->
<svg version="1.1" id="Layer_1" xmlns="http://www.w3.org/2000/svg" xmlns:xlink="http://www.w3.org/1999/xlink" x="0px" y="0px"
	 viewBox="0 0 357 210" style="enable-background:new 0 0 357 210;" xml:space="preserve">
<style type="text/css">
	.st0{fill:#FFFFFF;}
</style>
<path class="st0" d="M284,146.8H79.9c-29.3,0-53.1-23.8-53.1-53.1s23.8-53.1,53.1-53.1H284c29.3,0,53.1,23.8,53.1,53.1
	S313.3,146.8,284,146.8 M79.9,44.7c-27,0-49,22-49,49c0,27,22,49,49,49H284c27,0,49-22,49-49c0-27-22-49-49-49H79.9z"/>
<path class="st0" d="M259.5,63.9c-7.9,0-14.3,6.4-14.3,14.4c0,7.9,6.4,14.3,14.3,14.3c7.9,0,14.3-6.4,14.3-14.3
	C273.8,70.4,267.4,63.9,259.5,63.9 M259.5,85.6c-4.1,0-7.4-3.3-7.4-7.4c0-4.1,3.3-7.4,7.4-7.4s7.4,3.3,7.4,7.4
	C266.9,82.4,263.6,85.6,259.5,85.6"/>
<path class="st0" d="M193.7,63.9c-7.9,0-14.3,6.4-14.3,14.4c0,7.9,6.4,14.3,14.3,14.3c7.9,0,14.4-6.4,14.4-14.3
	C208.1,70.4,201.6,63.9,193.7,63.9 M193.7,85.6c-4.1,0-7.4-3.3-7.4-7.4c0-4.1,3.3-7.4,7.4-7.4c4.1,0,7.4,3.3,7.4,7.4
	C201.1,82.4,197.8,85.6,193.7,85.6"/>
<path class="st0" d="M244.2,86c-0.9,0.3-2.3,0.5-2.8,0.5c-2.5,0-3-0.8-3-3.2V70.1h5.9v-5.5h-5.9v-7.8h-6.6l-1.4,7.8h-4.6v0h-0.4
	c-3.8,0-6.6,2.3-8.4,5.9l-2.3-5.9H210v27.5h8.1v-12c0-6,3.6-9.9,7.8-10h4.4v13.7c0,6.4,3.3,8.8,8.7,8.8c2.8,0,4.9-0.6,6.2-1
	L244.2,86z"/>
<polyline class="st0" points="283.7,73.3 283.7,92.1 275.8,92.1 275.8,64.6 280.6,64.6 282.2,68.8 "/>
<path class="st0" d="M282.1,68.8c2.4-2.8,5.7-4.9,9.5-4.9c6.6,0,9.2,5.2,9.2,10.1v18.1h-8.1V74.2c0-2.4-2-3.6-4.1-3.6
	c-2.3,0-3.7,1.3-5,2.7"/>
<polygon class="st0" points="147.8,54.6 156.8,54.6 169.2,78.2 169.2,54.6 176.7,54.6 176.7,92.1 168.5,92.1 155.3,66.2 155.3,92.1 
	147.8,92.1 "/>
<polygon class="st0" points="324.8,40.5 324.8,41.9 322.8,41.9 322.8,48.5 321.3,48.5 321.3,41.9 319.3,41.9 319.3,40.5 "/>
<polygon class="st0" points="325.9,48.5 325.9,40.5 327.9,40.5 329.3,45.7 330.7,40.5 332.8,40.5 332.8,48.5 331.5,48.5 331.5,42.3 
	331.5,42.3 329.9,48.5 328.8,48.5 327.2,42.3 327.1,42.3 327.1,48.5 "/>
<path class="st0" d="M145.6,125.3l1.9-2.9c1.5,1.1,3.8,2.2,6.6,2.2c2.7,0,4.4-1.2,4.4-3.4c0-2.4-2.1-3.1-5.6-4.3
	c-3.1-1.1-6.2-2.7-6.2-7.1c0-4.1,3.3-6.4,7.6-6.4c2.9,0,5.1,0.6,6.8,1.6l-1.5,3.1c-1.4-0.8-3.2-1.3-5.2-1.3c-2.4,0-3.9,0.9-3.9,2.9
	c0,2.3,1.7,2.8,4.9,3.9c3.3,1.1,7,2.6,7,7.5c0,4.1-2.9,6.8-8.2,6.8C150.1,128,147.3,126.7,145.6,125.3"/>
<polygon class="st0" points="169.4,103.9 183.6,103.9 183.6,107.2 173.4,107.2 173.4,113.7 181.4,113.7 181.4,116.9 173.4,116.9 
	173.4,124.4 184.2,124.4 184.2,127.7 169.4,127.7 "/>
<path class="st0" d="M190,115.8c0-7,3.3-12.3,10-12.3c3,0,5.3,0.9,7,2.9l-2.4,2.7c-1.4-1.4-2.6-2.1-4.6-2.1c-3.9,0-5.7,3.2-5.7,9.1
	c0,5.5,1.9,8.3,5.7,8.3c2.1,0,3.6-1.1,4.9-2.5l2.4,2.6c-1.7,2-3.9,3.4-7.3,3.4C193.2,128,190,122.8,190,115.8"/>
<path class="st0" d="M213.9,118.6v-14.7h4.1v15.4c0,3.3,0.8,5.4,4.3,5.4c3.4,0,4.3-2.1,4.3-5.4v-15.4h4.1v14.7
	c0,5.9-2.3,9.4-8.4,9.4C216.2,128,213.9,124.5,213.9,118.6"/>
<path class="st0" d="M255.5,127.7h-4.4l-4.6-10.1h-3.8v10.1h-4v-23.8h7.8c4.8,0,8.6,1.7,8.6,6.9c0,3.6-2.1,5.4-4.5,6.2L255.5,127.7z
	 M246.3,114.5c3,0,4.6-1,4.6-3.7c0-2.6-1.6-3.6-4.3-3.6h-3.8v7.3H246.3z"/>
<polygon class="st0" points="262.4,103.9 276.6,103.9 276.6,107.2 266.4,107.2 266.4,113.7 274.4,113.7 274.4,116.9 266.4,116.9 
	266.4,124.4 277.2,124.4 277.2,127.7 262.4,127.7 "/>
<path class="st0" d="M284,103.9h5.9c7.8,0,11.5,4.2,11.5,11.8c0,7.8-3.8,12-11.3,12H284V103.9z M289.7,124.4c5.6,0,7.5-2.6,7.5-8.7
	c0-5.4-1.5-8.5-7-8.5H288v17.2H289.7z"/>
<path class="st0" d="M79.7,151c-31.6,0-57.3-25.7-57.3-57.3c0-31.6,25.7-57.3,57.3-57.3c31.6,0,57.3,25.7,57.3,57.3
	C137,125.3,111.3,151,79.7,151 M79.7,54.5c-10.5,0-20.3,4.1-27.7,11.5c-7.4,7.4-11.5,17.2-11.5,27.7c0,10.5,4.1,20.3,11.5,27.7
	c7.4,7.4,17.2,11.5,27.7,11.5c10.5,0,20.3-4.1,27.7-11.5c7.4-7.4,11.5-17.2,11.5-27.7c0-10.5-4.1-20.3-11.5-27.7
	C100,58.6,90.1,54.5,79.7,54.5"/>
<rect x="142.1" y="27.5" class="st0" width="4.5" height="4.5"/>
<rect x="142.1" y="18.6" class="st0" width="4.5" height="4.5"/>
<rect x="129.5" y="32" class="st0" width="4.2" height="4.4"/>
<rect x="133.7" y="36.3" class="st0" width="4.7" height="4.2"/>
<rect x="117.1" y="36.5" class="st0" width="4.2" height="4"/>
<rect x="137.7" y="23.1" class="st0" width="4.4" height="4.4"/>
<rect x="129.5" y="27.5" class="st0" width="8.2" height="4.4"/>
<rect x="125.5" y="32" class="st0" width="4.1" height="8.6"/>
<path class="st0" d="M125.5,44.7v4.2h-4.2v-4.2h-7v3h-3.7v3.7h4.2v4.2h-4.2v-4.2h-4.4V58h-4.2v4.2h-2.8v4.2H96
	C92.6,71.5,84,87.4,81.4,93.9c-9.4-13.1-16.7-18.3-22.5-20.1c-3.1-0.9-6.8,2.4-1.7,7.8c11.8,13,15.6,23.8,19.2,32.4
	c1.9,4.5,10.4,5.2,12.1,0.6c3.6-9.8,8.9-20.7,15.2-29.7v-4.7h3.3V76h3.5v-4.9h4.2v-4.7h-4.2v-4.3h4.2v4.3h4.1l0-4.2h3.3v-5.1h3.7
	v-3.5h3.6v-8.9H125.5z"/>
<path class="st0" d="M44.6,170.6h3.1v2.3c1-1.4,2.4-2.6,4.6-2.6c3.2,0,6.4,2.6,6.4,7.1v0.1c0,4.5-3.1,7.1-6.4,7.1
	c-2.3,0-3.7-1.1-4.6-2.4v6.3h-3.1V170.6z M55.6,177.5L55.6,177.5c0-2.7-1.8-4.4-3.9-4.4s-4,1.8-4,4.4v0.1c0,2.6,1.9,4.4,4,4.4
	C53.8,181.9,55.6,180.2,55.6,177.5"/>
<path class="st0" d="M61.3,177.6L61.3,177.6c0-4,3.1-7.2,7.3-7.2c4.2,0,7.3,3.2,7.3,7.1v0.1c0,3.9-3.1,7.1-7.3,7.1
	C64.4,184.7,61.3,181.5,61.3,177.6 M72.8,177.6L72.8,177.6c0-2.5-1.7-4.5-4.2-4.5c-2.5,0-4.1,2-4.1,4.4v0.1c0,2.4,1.7,4.4,4.2,4.4
	C71.2,181.9,72.8,179.9,72.8,177.6"/>
<polygon class="st0" points="77.4,170.6 80.7,170.6 83.4,180 86.4,170.6 89.1,170.6 92.2,180 95,170.6 98.1,170.6 93.6,184.4 
	90.8,184.4 87.8,175.1 84.7,184.4 81.9,184.4 "/>
<path class="st0" d="M99.7,177.5L99.7,177.5c0-4,2.8-7.2,6.7-7.2c4.4,0,6.6,3.4,6.6,7.4c0,0.3,0,0.6-0.1,0.9h-10.1
	c0.3,2.2,1.9,3.5,3.9,3.5c1.5,0,2.6-0.6,3.7-1.6l1.8,1.6c-1.3,1.6-3.1,2.6-5.6,2.6C102.8,184.7,99.7,181.8,99.7,177.5 M109.9,176.5
	c-0.2-2-1.4-3.6-3.5-3.6c-1.9,0-3.3,1.5-3.6,3.6H109.9z"/>
<path class="st0" d="M116.2,170.6h3.1v3.1c0.9-2,2.4-3.4,4.8-3.3v3.3h-0.2c-2.8,0-4.7,1.8-4.7,5.4v5.2h-3.1V170.6z"/>
<path class="st0" d="M126.1,177.5L126.1,177.5c0-4,2.8-7.2,6.7-7.2c4.4,0,6.6,3.4,6.6,7.4c0,0.3,0,0.6-0.1,0.9h-10.1
	c0.3,2.2,1.9,3.5,3.9,3.5c1.5,0,2.6-0.6,3.7-1.6l1.8,1.6c-1.3,1.6-3.1,2.6-5.6,2.6C129.1,184.7,126.1,181.8,126.1,177.5
	 M136.2,176.5c-0.2-2-1.4-3.6-3.5-3.6c-1.9,0-3.3,1.5-3.6,3.6H136.2z"/>
<path class="st0" d="M141.9,177.5L141.9,177.5c0-4.6,3.1-7.2,6.4-7.2c2.3,0,3.7,1.1,4.7,2.4v-7.4h3.1v18.9h-3.1v-2.3
	c-1,1.4-2.4,2.6-4.7,2.6C145,184.6,141.9,182.1,141.9,177.5 M152.9,177.5L152.9,177.5c0-2.7-1.9-4.4-4-4.4c-2.2,0-3.9,1.7-3.9,4.4
	v0.1c0,2.6,1.8,4.4,3.9,4.4C151.1,181.9,152.9,180.1,152.9,177.5"/>
<path class="st0" d="M170.8,182.2v2.1h-3.1v-18.9h3.1v7.5c1-1.4,2.4-2.6,4.6-2.6c3.2,0,6.4,2.6,6.4,7.1v0.1c0,4.5-3.1,7.1-6.4,7.1
	C173.2,184.6,171.8,183.5,170.8,182.2 M178.7,177.5L178.7,177.5c0-2.7-1.8-4.4-3.9-4.4c-2.1,0-4,1.8-4,4.4v0.1c0,2.6,1.9,4.4,4,4.4
	C176.9,181.9,178.7,180.2,178.7,177.5"/>
<path class="st0" d="M184,187.7l1.1-2.3c0.6,0.3,1.2,0.5,1.8,0.5c0.9,0,1.4-0.4,1.9-1.6l-5.7-13.7h3.3l3.9,10.2l3.6-10.2h3.3
	l-5.4,14.1c-1.1,2.8-2.3,3.8-4.5,3.8C185.9,188.6,185,188.3,184,187.7"/>
<polygon class="st0" points="206.5,166.2 210,166.2 215.5,180.1 220.9,166.2 224.4,166.2 216.8,184.5 214,184.5 "/>
<path class="st0" d="M225,177.5L225,177.5c0-4,2.8-7.2,6.7-7.2c4.4,0,6.6,3.4,6.6,7.4c0,0.3,0,0.6-0.1,0.9h-10.1
	c0.3,2.2,1.9,3.5,3.9,3.5c1.5,0,2.6-0.6,3.7-1.6l1.8,1.6c-1.3,1.6-3.1,2.6-5.6,2.6C228.1,184.7,225,181.8,225,177.5 M235.2,176.5
	c-0.2-2-1.4-3.6-3.5-3.6c-1.9,0-3.3,1.5-3.6,3.6H235.2z"/>
<path class="st0" d="M241.6,170.6h3.1v3.1c0.9-2,2.4-3.4,4.9-3.3v3.3h-0.2c-2.8,0-4.7,1.8-4.7,5.4v5.2h-3.1V170.6z"/>
<path class="st0" d="M252.1,165.6h3.4v3h-3.4V165.6z M252.2,170.6h3.1v13.7h-3.1V170.6z"/>
<path class="st0" d="M258.6,181.7l1.9-2.3c1.7,1.5,3.5,2.4,5.7,2.4c2,0,3.2-0.9,3.2-2.3v-0.1c0-1.3-0.7-2-4.1-2.8
	c-3.9-0.9-6-2.1-6-5.4v-0.1c0-3.1,2.6-5.3,6.2-5.3c2.6,0,4.7,0.8,6.6,2.3l-1.7,2.4c-1.6-1.2-3.3-1.9-4.9-1.9c-1.9,0-3,1-3,2.2v0.1
	c0,1.4,0.8,2,4.3,2.9c3.8,0.9,5.8,2.3,5.8,5.3v0c0,3.4-2.7,5.4-6.5,5.4C263.4,184.6,260.8,183.6,258.6,181.7"/>
<path class="st0" d="M276.2,165.6h3.4v3h-3.4V165.6z M276.3,170.6h3.1v13.7h-3.1V170.6z"/>
<path class="st0" d="M283.4,186.9l1.2-2.4c1.5,0.9,3,1.4,4.9,1.4c2.8,0,4.3-1.4,4.3-4.2v-1.1c-1.1,1.5-2.6,2.5-4.8,2.5
	c-3.2,0-6.2-2.4-6.2-6.4v-0.1c0-4,3-6.4,6.2-6.4c2.3,0,3.7,1.1,4.8,2.3v-2h3.1v10.9c0,2.3-0.6,4-1.7,5.2c-1.2,1.2-3.2,1.8-5.6,1.8
	C287.2,188.5,285.1,188,283.4,186.9 M293.8,176.8L293.8,176.8c0-2.3-1.8-3.8-4-3.8c-2.2,0-3.9,1.5-3.9,3.8v0.1
	c0,2.3,1.7,3.8,3.9,3.8C291.9,180.6,293.8,179.1,293.8,176.8"/>
<path class="st0" d="M300.9,170.6h3.1v2.1c0.9-1.3,2.2-2.4,4.3-2.4c3.1,0,4.9,2.1,4.9,5.3v8.7H310v-7.8c0-2.1-1.1-3.3-2.9-3.3
	c-1.8,0-3.1,1.3-3.1,3.4v7.7h-3.1V170.6z"/>
<rect x="110.5" y="51.5" class="st0" width="4.1" height="4.1"/>
<rect x="110.5" y="62.1" class="st0" width="4.2" height="4.3"/>
</svg>
