<?xml version="1.0" encoding="utf-8"?>
<!-- Generator: Adobe Illustrator 21.1.0, SVG Export Plug-In . SVG Version: 6.00 Build 0)  -->
<svg version="1.1" id="Layer_1" xmlns="http://www.w3.org/2000/svg" xmlns:xlink="http://www.w3.org/1999/xlink" x="0px" y="0px"
	 viewBox="0 0 377 236" style="enable-background:new 0 0 377 236;" xml:space="preserve">
<style type="text/css">
	.st0{fill:#FFFFFF;}
	.st1{fill:#C7C8CA;}
	.st2{fill:#A7A9AC;}
	.st3{fill:#FFC20E;}
	.st4{fill:#A30046;}
</style>
<path class="st0" d="M86,50.3c-27,0-49,22-49,49s22,49,49,49h204.1c27,0,49-22,49-49s-22-49-49-49H86z"/>
<path class="st1" d="M290.1,152.4H86c-29.3,0-53.1-23.8-53.1-53.1C32.9,70,56.7,46.2,86,46.2h204.1c29.3,0,53.1,23.8,53.1,53.1
	S319.4,152.4,290.1,152.4 M86,50.3c-27,0-49,22-49,49s22,49,49,49h204.1c27,0,49-22,49-49s-22-49-49-49H86z"/>
<path d="M265.6,69.5c-7.9,0-14.3,6.4-14.3,14.4c0,7.9,6.4,14.3,14.3,14.3s14.3-6.4,14.3-14.3S273.5,69.5,265.6,69.5 M265.6,91.2
	c-4.1,0-7.4-3.3-7.4-7.4s3.3-7.4,7.4-7.4s7.4,3.3,7.4,7.4C273,87.9,269.7,91.2,265.6,91.2"/>
<path d="M199.8,69.5c-7.9,0-14.3,6.4-14.3,14.4c0,7.9,6.4,14.3,14.3,14.3s14.4-6.4,14.4-14.3C214.2,76,207.7,69.5,199.8,69.5
	 M199.8,91.2c-4.1,0-7.4-3.3-7.4-7.4s3.3-7.4,7.4-7.4s7.4,3.3,7.4,7.4C207.2,87.9,203.9,91.2,199.8,91.2"/>
<path d="M250.3,91.6c-0.9,0.3-2.3,0.5-2.8,0.5c-2.5,0-3-0.8-3-3.2V75.6h5.9v-5.5h-5.9v-7.8h-6.6l-1.4,7.8h-4.6l0,0h-0.4
	c-3.8,0-6.6,2.3-8.4,5.9l-2.3-5.9h-4.7v27.5h8.1v-12c0-6,3.6-9.9,7.8-10h4.4v13.7c0,6.4,3.3,8.8,8.7,8.8c2.8,0,4.9-0.6,6.2-1
	L250.3,91.6z"/>
<polyline points="289.8,78.9 289.8,97.7 281.9,97.7 281.9,70.2 286.7,70.2 288.3,74.4 "/>
<path d="M288.2,74.4c2.4-2.8,5.7-4.9,9.5-4.9c6.6,0,9.2,5.2,9.2,10.1v18.1h-8.1V79.8c0-2.4-2-3.6-4.1-3.6c-2.3,0-3.7,1.3-5,2.7"/>
<polygon points="153.9,60.2 162.9,60.2 175.3,83.8 175.3,60.2 182.8,60.2 182.8,97.7 174.6,97.7 161.4,71.8 161.4,97.7 153.9,97.7 
	"/>
<polygon class="st2" points="330.9,46.1 330.9,47.5 328.9,47.5 328.9,54.1 327.4,54.1 327.4,47.5 325.4,47.5 325.4,46.1 "/>
<polygon class="st2" points="332,54.1 332,46.1 334,46.1 335.4,51.3 336.8,46.1 338.9,46.1 338.9,54.1 337.6,54.1 337.6,47.9 
	337.6,47.9 336,54.1 334.9,54.1 333.3,47.9 333.2,47.9 333.2,54.1 "/>
<path class="st2" d="M151.7,130.9l1.9-2.9c1.5,1.1,3.8,2.2,6.6,2.2c2.7,0,4.4-1.2,4.4-3.4c0-2.4-2.1-3.1-5.6-4.3
	c-3.1-1.1-6.2-2.7-6.2-7.1c0-4.1,3.3-6.4,7.6-6.4c2.9,0,5.1,0.6,6.8,1.6l-1.5,3.1c-1.4-0.8-3.2-1.3-5.2-1.3c-2.4,0-3.9,0.9-3.9,2.9
	c0,2.3,1.7,2.8,4.9,3.9c3.3,1.1,7,2.6,7,7.5c0,4.1-2.9,6.8-8.2,6.8C156.2,133.6,153.4,132.3,151.7,130.9"/>
<polygon class="st2" points="175.5,109.5 189.7,109.5 189.7,112.8 179.5,112.8 179.5,119.3 187.5,119.3 187.5,122.5 179.5,122.5 
	179.5,130 190.3,130 190.3,133.3 175.5,133.3 "/>
<path class="st2" d="M196.1,121.4c0-7,3.3-12.3,10-12.3c3,0,5.3,0.9,7,2.9l-2.4,2.7c-1.4-1.4-2.6-2.1-4.6-2.1
	c-3.9,0-5.7,3.2-5.7,9.1c0,5.5,1.9,8.3,5.7,8.3c2.1,0,3.6-1.1,4.9-2.5l2.4,2.6c-1.7,2-3.9,3.4-7.4,3.4
	C199.3,133.6,196.1,128.4,196.1,121.4"/>
<path class="st2" d="M220,124.2v-14.7h4.1v15.4c0,3.3,0.8,5.4,4.3,5.4c3.4,0,4.3-2.1,4.3-5.4v-15.4h4.1v14.7c0,5.9-2.3,9.4-8.4,9.4
	S220,130.1,220,124.2"/>
<path class="st2" d="M261.6,133.3h-4.4l-4.6-10.1h-3.8v10.1h-4v-23.8h7.8c4.8,0,8.6,1.7,8.6,6.9c0,3.6-2.1,5.4-4.5,6.2L261.6,133.3z
	 M252.4,120.1c3,0,4.6-1,4.6-3.7c0-2.6-1.6-3.6-4.3-3.6h-3.8v7.3L252.4,120.1L252.4,120.1z"/>
<polygon class="st2" points="268.5,109.5 282.7,109.5 282.7,112.8 272.5,112.8 272.5,119.3 280.5,119.3 280.5,122.5 272.5,122.5 
	272.5,130 283.3,130 283.3,133.3 268.5,133.3 "/>
<path class="st2" d="M290.1,109.5h5.9c7.8,0,11.5,4.2,11.5,11.8c0,7.8-3.8,12-11.3,12H290v-23.8H290.1z M295.8,130
	c5.6,0,7.5-2.6,7.5-8.7c0-5.4-1.5-8.5-7-8.5h-2.2V130H295.8z"/>
<path class="st3" d="M85.8,156.6c-31.6,0-57.3-25.7-57.3-57.3S54.2,42,85.8,42s57.3,25.7,57.3,57.3S117.4,156.6,85.8,156.6
	 M85.8,60.1c-10.5,0-20.3,4.1-27.7,11.5S46.6,88.8,46.6,99.3s4.1,20.3,11.5,27.7c7.4,7.4,17.2,11.5,27.7,11.5s20.3-4.1,27.7-11.5
	S125,109.8,125,99.3s-4.1-20.3-11.5-27.7C106.1,64.2,96.2,60.1,85.8,60.1"/>
<rect x="148.2" y="33.1" class="st3" width="4.5" height="4.5"/>
<rect x="148.2" y="24.2" class="st3" width="4.5" height="4.5"/>
<rect x="135.6" y="37.5" class="st3" width="4.2" height="4.4"/>
<rect x="127.4" y="46.1" width="4.2" height="4.2"/>
<rect x="139.8" y="41.9" width="4.7" height="4.2"/>
<rect x="123.2" y="42.1" width="4.2" height="4"/>
<rect x="135.6" y="46.1" width="4.2" height="4.2"/>
<rect x="143.8" y="28.7" width="4.4" height="4.4"/>
<rect x="135.6" y="33.1" width="8.2" height="4.4"/>
<rect x="131.6" y="37.5" width="4.1" height="8.6"/>
<path d="M131.6,50.3v4.2h-4.2v-4.2h-7v3h-3.7V57h4.2v4.2h-4.2V57h-4.4v6.5H108v4.2h-2.8v4.2h-3.1C98.7,77,90,93,87.4,99.5
	C78,86.4,70.7,81.2,64.9,79.3c-3.1-0.9-6.8,2.4-1.7,7.8c11.8,13,15.6,23.8,19.2,32.4c1.9,4.5,10.4,5.2,12.1,0.6
	c3.6-9.8,8.9-20.7,15.2-29.7v-4.7h3.3v-4.2h3.5v-4.9h4.2V72h-4.2v-4.3h4.2V72h4.1v-4.2h3.3v-5.1h3.7v-3.5h3.6v-8.9H131.6z"/>
<path class="st2" d="M50.7,176.2h3.1v2.3c1-1.4,2.4-2.6,4.6-2.6c3.2,0,6.4,2.6,6.4,7.1v0.1c0,4.5-3.1,7.1-6.4,7.1
	c-2.3,0-3.7-1.1-4.6-2.4v6.3h-3.1V176.2z M61.7,183.1L61.7,183.1c0-2.7-1.8-4.4-3.9-4.4s-4,1.8-4,4.4v0.1c0,2.6,1.9,4.4,4,4.4
	C59.9,187.5,61.7,185.8,61.7,183.1"/>
<path class="st2" d="M67.4,183.2L67.4,183.2c0-4,3.1-7.2,7.3-7.2s7.3,3.2,7.3,7.1v0.1c0,3.9-3.1,7.1-7.3,7.1
	C70.5,190.3,67.4,187.1,67.4,183.2 M78.9,183.2L78.9,183.2c0-2.5-1.7-4.5-4.2-4.5s-4.1,2-4.1,4.4v0.1c0,2.4,1.7,4.4,4.2,4.4
	C77.3,187.5,78.9,185.5,78.9,183.2"/>
<polygon class="st2" points="83.5,176.2 86.8,176.2 89.5,185.6 92.5,176.2 95.2,176.2 98.3,185.6 101.1,176.2 104.2,176.2 99.7,190 
	96.9,190 93.9,180.7 90.8,190 88,190 "/>
<path class="st2" d="M105.8,183.1L105.8,183.1c0-4,2.8-7.2,6.7-7.2c4.4,0,6.6,3.4,6.6,7.4c0,0.3,0,0.6-0.1,0.9h-10
	c0.3,2.2,1.9,3.5,3.9,3.5c1.5,0,2.6-0.6,3.7-1.6l1.8,1.6c-1.3,1.6-3.1,2.6-5.6,2.6C108.9,190.3,105.8,187.4,105.8,183.1 M116,182.1
	c-0.2-2-1.4-3.6-3.5-3.6c-1.9,0-3.3,1.5-3.6,3.6H116z"/>
<path class="st2" d="M122.3,176.2h3.1v3.1c0.9-2,2.4-3.4,4.8-3.3v3.3H130c-2.8,0-4.7,1.8-4.7,5.4v5.2h-3.1L122.3,176.2L122.3,176.2z
	"/>
<path class="st2" d="M132.2,183.1L132.2,183.1c0-4,2.8-7.2,6.7-7.2c4.4,0,6.6,3.4,6.6,7.4c0,0.3,0,0.6-0.1,0.9h-10.1
	c0.3,2.2,1.9,3.5,3.9,3.5c1.5,0,2.6-0.6,3.7-1.6l1.8,1.6c-1.3,1.6-3.1,2.6-5.6,2.6C135.2,190.3,132.2,187.4,132.2,183.1
	 M142.3,182.1c-0.2-2-1.4-3.6-3.5-3.6c-1.9,0-3.3,1.5-3.6,3.6H142.3z"/>
<path class="st2" d="M148,183.1L148,183.1c0-4.6,3.1-7.2,6.4-7.2c2.3,0,3.7,1.1,4.7,2.4V171h3.1v18.9H159v-2.3
	c-1,1.4-2.4,2.6-4.7,2.6C151.1,190.2,148,187.7,148,183.1 M159,183.1L159,183.1c0-2.7-1.9-4.4-4-4.4c-2.2,0-3.9,1.7-3.9,4.4v0.1
	c0,2.6,1.8,4.4,3.9,4.4C157.2,187.5,159,185.7,159,183.1"/>
<path class="st2" d="M176.9,187.8v2.1h-3.1V171h3.1v7.5c1-1.4,2.4-2.6,4.6-2.6c3.2,0,6.4,2.6,6.4,7.1v0.1c0,4.5-3.1,7.1-6.4,7.1
	C179.3,190.2,177.9,189.1,176.9,187.8 M184.8,183.1L184.8,183.1c0-2.7-1.8-4.4-3.9-4.4s-4,1.8-4,4.4v0.1c0,2.6,1.9,4.4,4,4.4
	C183,187.5,184.8,185.8,184.8,183.1"/>
<path class="st2" d="M190.1,193.3l1.1-2.3c0.6,0.3,1.2,0.5,1.8,0.5c0.9,0,1.4-0.4,1.9-1.6l-5.7-13.7h3.3l3.9,10.2l3.6-10.2h3.3
	l-5.4,14.1c-1.1,2.8-2.3,3.8-4.5,3.8C192,194.2,191.1,193.9,190.1,193.3"/>
<polygon class="st4" points="212.6,171.8 216.1,171.8 221.6,185.7 227,171.8 230.5,171.8 222.9,190.1 220.1,190.1 "/>
<path class="st4" d="M231.1,183.1L231.1,183.1c0-4,2.8-7.2,6.7-7.2c4.4,0,6.6,3.4,6.6,7.4c0,0.3,0,0.6-0.1,0.9h-10.1
	c0.3,2.2,1.9,3.5,3.9,3.5c1.5,0,2.6-0.6,3.7-1.6l1.8,1.6c-1.3,1.6-3.1,2.6-5.6,2.6C234.2,190.3,231.1,187.4,231.1,183.1
	 M241.3,182.1c-0.2-2-1.4-3.6-3.5-3.6c-1.9,0-3.3,1.5-3.6,3.6H241.3z"/>
<path class="st4" d="M247.7,176.2h3.1v3.1c0.9-2,2.4-3.4,4.9-3.3v3.3h-0.2c-2.8,0-4.7,1.8-4.7,5.4v5.2h-3.1L247.7,176.2L247.7,176.2
	z"/>
<path class="st4" d="M258.2,171.2h3.4v3h-3.4V171.2z M258.3,176.2h3.1v13.7h-3.1V176.2z"/>
<path class="st4" d="M264.7,187.3l1.9-2.3c1.7,1.5,3.5,2.4,5.7,2.4c2,0,3.2-0.9,3.2-2.3V185c0-1.3-0.7-2-4.1-2.8
	c-3.9-0.9-6-2.1-6-5.4v-0.1c0-3.1,2.6-5.3,6.2-5.3c2.6,0,4.7,0.8,6.6,2.3l-1.7,2.4c-1.6-1.2-3.3-1.9-4.9-1.9c-1.9,0-3,1-3,2.2v0.1
	c0,1.4,0.8,2,4.3,2.9c3.8,0.9,5.8,2.3,5.8,5.3l0,0c0,3.4-2.7,5.4-6.5,5.4C269.5,190.2,266.9,189.2,264.7,187.3"/>
<path class="st4" d="M282.3,171.2h3.4v3h-3.4V171.2z M282.4,176.2h3.1v13.7h-3.1V176.2z"/>
<path class="st4" d="M289.5,192.5l1.2-2.4c1.5,0.9,3,1.4,4.9,1.4c2.8,0,4.3-1.4,4.3-4.2v-1.1c-1.1,1.5-2.6,2.5-4.8,2.5
	c-3.2,0-6.2-2.4-6.2-6.4v-0.1c0-4,3-6.4,6.2-6.4c2.3,0,3.7,1.1,4.8,2.3v-2h3.1V187c0,2.3-0.6,4-1.7,5.2c-1.2,1.2-3.2,1.8-5.6,1.8
	C293.3,194.1,291.2,193.6,289.5,192.5 M299.9,182.4L299.9,182.4c0-2.3-1.8-3.8-4-3.8s-3.9,1.5-3.9,3.8v0.1c0,2.3,1.7,3.8,3.9,3.8
	C298,186.2,299.9,184.6,299.9,182.4"/>
<path class="st4" d="M307,176.2h3.1v2.1c0.9-1.3,2.2-2.4,4.3-2.4c3.1,0,4.9,2.1,4.9,5.3v8.7h-3.1v-7.8c0-2.1-1.1-3.3-2.9-3.3
	s-3.1,1.3-3.1,3.4v7.7H307V176.2z"/>
</svg>
