<?xml version="1.0" encoding="utf-8"?>
<!-- Generator: Adobe Illustrator 19.2.1, SVG Export Plug-In . SVG Version: 6.00 Build 0)  -->
<svg version="1.1" id="Ebene_1" xmlns="http://www.w3.org/2000/svg" xmlns:xlink="http://www.w3.org/1999/xlink" x="0px" y="0px"
	 viewBox="0 0 18 18" style="enable-background:new 0 0 18 18;" xml:space="preserve">
<g>
	<path d="M6,9.7L5,6.9L2.1,7.5l-2,3.6l3.1,5.5h4.9v-4.5H4.6L6,9.7z M2.6,13.3l-1.3-2.2l1.5-2.6l1.5-0.3l0.5,1.4L2.6,13.3z M6.9,13.2
		v2.3H3.8l-0.6-1L4,13.2H6.9z"/>
	<path d="M9,4.5l1.4,2.3l2.9,0.5l1-2.8L12.1,1H5.8L3.3,5.2l3.9,2.3L9,4.5z M11.4,2.1L13,4.6L12.5,6L11,5.8L8.9,2.1H11.4z M4.9,4.8
		l1.6-2.7h1.1l0.8,1.3L6.8,5.9L4.9,4.8z"/>
	<path d="M15.5,6.8l-3.9,2.3l1.7,2.9h-2.7l-1.9,2.3l2,2.3h4.1l3.1-5.5L15.5,6.8z M14.2,15.4h-3l-1-1.1l1-1.2h4.3L14.2,15.4z
		 M13.1,9.5l2-1.1l1.6,2.7L16.2,12h-1.6L13.1,9.5z"/>
</g>
</svg>
