<?xml version="1.0" encoding="utf-8"?>
<!-- Generator: Adobe Illustrator 21.1.0, SVG Export Plug-In . SVG Version: 6.00 Build 0)  -->
<svg version="1.1" id="Ebene_1" xmlns="http://www.w3.org/2000/svg" xmlns:xlink="http://www.w3.org/1999/xlink" x="0px" y="0px"
	 viewBox="0 0 18 18" style="enable-background:new 0 0 18 18;" xml:space="preserve">
<style type="text/css">
	.st0{fill:#FFFFFF;}
</style>
<g>
	<path class="st0" d="M12.9,4.5V2.9C12.9,1.3,11.6,0,10,0H8C6.4,0,5.1,1.3,5.1,2.9v1.6H2.2V18h13.5V4.5H12.9z M6.1,2.9
		C6.1,1.9,7,1,8,1H10c1,0,1.9,0.8,1.9,1.9v1.6H6.1V2.9z M14.6,16.9H3.4V5.6h1.7v1.3h1V5.6h5.7v1.3h1V5.6h1.7V16.9z"/>
	<path class="st0" d="M10.2,10H7.1l1.3-1.3L7.6,7.9l-2.6,2.6l2.6,2.6l0.8-0.8l-1.3-1.3h3.1c0.9,0,1.7,0.8,1.7,1.7s-0.8,1.7-1.7,1.7
		H8.7v1.1h1.5c1.6,0,2.8-1.3,2.8-2.8S11.8,10,10.2,10z"/>
</g>
</svg>
