<?xml version="1.0" encoding="utf-8"?>
<!-- Generator: Adobe Illustrator 19.2.1, SVG Export Plug-In . SVG Version: 6.00 Build 0)  -->
<svg version="1.1" id="Ebene_1" xmlns="http://www.w3.org/2000/svg" xmlns:xlink="http://www.w3.org/1999/xlink" x="0px" y="0px"
	 viewBox="0 0 18 18" style="enable-background:new 0 0 18 18;" xml:space="preserve">
<g>
	<path d="M12.896,4.5V2.922C12.896,1.311,11.585,0,9.973,0H8.027C6.415,0,5.104,1.311,5.104,2.922V4.5H2.25V18h13.5V4.5H12.896z
		 M6.146,2.922c0-1.037,0.844-1.881,1.881-1.881h1.947c1.037,0,1.881,0.844,1.881,1.881V4.5H6.146V2.922z M14.625,16.875H3.375
		V5.625h1.729v1.293h1.042V5.625h5.708v1.293h1.042V5.625h1.729V16.875z"/>
	<path d="M10.242,9.96H7.1l1.289-1.29L7.594,7.875l-2.648,2.648l2.648,2.648l0.795-0.796L7.1,11.085h3.142
		c0.931,0,1.688,0.757,1.688,1.688s-0.757,1.688-1.688,1.688h-1.5v1.125h1.5c1.551,0,2.812-1.262,2.812-2.812
		S11.792,9.96,10.242,9.96z"/>
</g>
</svg>
