<?xml version="1.0" encoding="utf-8"?>
<!-- Generator: Adobe Illustrator 21.1.0, SVG Export Plug-In . SVG Version: 6.00 Build 0)  -->
<svg version="1.1" id="Ebene_1" xmlns="http://www.w3.org/2000/svg" xmlns:xlink="http://www.w3.org/1999/xlink" x="0px" y="0px"
	 viewBox="0 0 18 18" style="enable-background:new 0 0 18 18;" xml:space="preserve">
<style type="text/css">
	.st0{fill:#FFFFFF;}
</style>
<path class="st0" d="M12.4,2.2H0v11.2h1.1c0,1.2,1,2.2,2.2,2.2s2.2-1,2.2-2.2h6.8c0,1.2,1,2.2,2.2,2.2s2.2-1,2.2-2.2H18V9L12.4,2.2z
	 M3.4,14.6c-0.6,0-1.1-0.5-1.1-1.1s0.5-1.1,1.1-1.1s1.1,0.5,1.1,1.1S4,14.6,3.4,14.6z M14.6,14.6c-0.6,0-1.1-0.5-1.1-1.1
	s0.5-1.1,1.1-1.1s1.1,0.5,1.1,1.1S15.2,14.6,14.6,14.6z M16.9,12.4h-0.3c-0.4-0.7-1.1-1.1-1.9-1.1s-1.5,0.5-1.9,1.1H5.3
	c-0.4-0.7-1.1-1.1-1.9-1.1s-1.5,0.5-1.9,1.1H1.1v-9h10.7l5,6v3H16.9z"/>
</svg>
