<?xml version="1.0" encoding="utf-8"?>
<!-- Generator: Adobe Illustrator 19.2.1, SVG Export Plug-In . SVG Version: 6.00 Build 0)  -->
<svg version="1.1" id="Ebene_1" xmlns="http://www.w3.org/2000/svg" xmlns:xlink="http://www.w3.org/1999/xlink" x="0px" y="0px"
	 viewBox="0 0 18 18" style="enable-background:new 0 0 18 18;" xml:space="preserve">
<g>
	<path d="M16.619,9c0,4.201-3.418,7.619-7.619,7.619c-2.385,0-4.572-1.082-6.026-2.965h3.607v-1.125H1.11V18h1.125v-3.48
		C3.903,16.567,6.343,17.744,9,17.744c4.822,0,8.744-3.922,8.744-8.744H16.619z"/>
	<path d="M9,1.381c2.388,0,4.581,1.085,6.028,2.965h-3.677v1.125h5.471V0h-1.125v3.4C14.031,1.403,11.62,0.256,9,0.256
		C4.178,0.256,0.256,4.178,0.256,9h1.125C1.381,4.799,4.799,1.381,9,1.381z"/>
</g>
</svg>
