<?xml version="1.0" encoding="utf-8"?>
<!-- Generator: Adobe Illustrator 21.1.0, SVG Export Plug-In . SVG Version: 6.00 Build 0)  -->
<svg version="1.1" id="Layer_1" xmlns="http://www.w3.org/2000/svg" xmlns:xlink="http://www.w3.org/1999/xlink" x="0px" y="0px"
	 viewBox="0 0 65 65" style="enable-background:new 0 0 65 65;" xml:space="preserve">
<style type="text/css">
	.st0{fill:#F8D363;}
	.st1{fill:#FFFFFF;stroke:#000000;stroke-width:1.9876;stroke-miterlimit:10;}
	.st2{fill:none;stroke:#000000;stroke-width:2.4674;stroke-miterlimit:10;}
</style>
<g>
	<path class="st0" d="M59,38.4C59,53,47.1,64.8,32.5,64.8S6,53,6,38.4s11.8-26.5,26.5-26.5S59,23.8,59,38.4z"/>
	<path d="M34.2,36.2c18.5,0,28.1-2.4,28.1-5.1c0-1.9-4.1-2.6-4.1-2.6s-0.6-6.1-3.4-10.4C50.1,11,40.9,9.1,40.9,9.1s-0.1-0.1,0,2.1
		s-4.4,2.5-4.4,0c0-0.7,0-2.8,0-2.8C35.6,8.2,32.9,8,32.9,8h-0.7c0,0-2.7,0.1-3.6,0.3c0,0,0,2.1,0,2.8c0,2.5-4.5,2.2-4.4,0
		c0.1-2.2,0-2.1,0-2.1s-9.2,2-13.9,9.1c-2.8,4.3-3.4,10.4-3.4,10.4s-4.1,0.7-4.1,2.6c0,2.8,9.8,5.1,28.3,5.1H34.2z"/>
	<circle class="st1" cx="32.5" cy="11.2" r="10"/>
	<g>
		<line class="st2" x1="22.2" y1="44.9" x2="16.5" y2="48.3"/>
		<line class="st2" x1="42.8" y1="45.2" x2="48.5" y2="48.6"/>
		<path class="st2" d="M19.3,46.6c0,0,4.1,8.8,13.5,8.8s12.8-8.8,12.8-8.8"/>
	</g>
</g>
</svg>
